# xmcd
#
# Track frame offsets: 
#        150
#        23741
#        39034
#        61197
#        81227
#        102544
#        121678
#        137258
#        160112
#        169104
#        189494
#        201731
#        218906
#
# Disc length: 3233 seconds
#
# Revision: 1
# Processed by: cddbd v1.5.2PL0 Copyright (c) Steve Scherf et al.
# Submitted via: ExactAudioCopyFreeDBPlugin 1.0
#
DISCID=a80c9f0d
DTITLE=Renata Przemyk - Boogie Street: Renata Przemyk śpiewa piosenki 
DTITLE=Leonarda Cohena
DYEAR=2017
DGENRE=Other
TTITLE0=Boogie street
TTITLE1=Oto jest - Here it is
TTITLE2=Dość kochałeś już - You have leved enought
TTITLE3=Na pocałunków dnie - A thousand kisses deep
TTITLE4=Dla Ciebie tak - There fore You
TTITLE5=Ponad mrokiem rzek - By the rivers dark
TTITLE6=Listy - The letters
TTITLE7=Odchodzi Aleksandra - Alexandra leaving
TTITLE8=Słowik - Nightingale
TTITLE9=Sama Miłość - Love itself
TTITLE10=Za sprawą kilku piosenek ... - Because of
TTITLE11=Wiara - The faith
TTITLE12=Boogie street (repryza)
EXTD=
EXTT0=
EXTT1=
EXTT2=
EXTT3=
EXTT4=
EXTT5=
EXTT6=
EXTT7=
EXTT8=
EXTT9=
EXTT10=
EXTT11=
EXTT12=
PLAYORDER=
